<svg id="Layer_1" data-name="Layer 1" xmlns="http://www.w3.org/2000/svg" viewBox="0 0 1000 1000"><circle cx="500" cy="500" r="475" style="fill:#ed2024"/><path d="M500,72.24A427.88,427.88,0,0,1,666.5,894.15a427.87,427.87,0,0,1-333-788.3A425.13,425.13,0,0,1,500,72.24m0-2C262.65,70.24,70.24,262.65,70.24,500S262.65,929.76,500,929.76,929.76,737.35,929.76,500,737.35,70.24,500,70.24Z" style="fill:#fff"/><path d="M766.85,345.74l-204.7-23.49a8.73,8.73,0,0,1-7.7-8.24l-1.11-23.31a8.73,8.73,0,0,1,9.36-9.13c68.71,5.27,129.18,45.84,198.74,52.59a8.84,8.84,0,0,0,9.47-7.24,7.9,7.9,0,0,1,1.22-3.17c3.61-5.1,7.73-11.81,12.91-13.22,4.43-1.21,12.59,2.68,15.48,6.83s3.57,13.36.8,16.72c-6.4,7.78-4,13.76-.83,21.23,23.31,55.61,46.16,111.42,69.74,166.92,3.89,9.15,2.62,14.92-4.15,21.87-54.72,56.06-109.92,49.24-160.9-3.8-3.37-3.5-3-13.57-.73-19.06C726.78,467.48,749.9,414,772.77,360.5l1.14-2.67A8.74,8.74,0,0,0,766.85,345.74ZM713.56,527.53a8.71,8.71,0,0,0,8.12,12c16.91-.13,31.75-.41,46.54.3,11.78.56,15.4-3.74,15.3-15.15-.41-48.85-.12-97.71-.23-146.57,0-3.17-1.21-6.34-1.85-9.51l-3.2-.42C757.22,420,736.19,471.78,713.56,527.53Zm137.6,12a8.72,8.72,0,0,0,8.05-12c-22.47-55.37-43.55-107.28-64.72-159.43-3,1.62-3.8,1.85-3.81,2.07-.36,53.47-.81,106.94-.63,160.4,0,3,5.09,8.43,8,8.54C815,539.68,831.94,539.56,851.16,539.5Z" style="fill:#fff"/><path d="M504.17,729.16C464.09,646.6,417,562.5,457.68,465.07c29.24,18.61,52.43,41.78,75,66.19,22.7,24.6,29.79,50.42,16.63,82.15-15.86,38.24-30.15,77.13-45.11,115.75Z" style="fill:#fff"/><path d="M437.59,352.85H561.5C551,384.66,531.4,406.63,502.15,420c-2.69,1.23-7.23.57-10-.9C465.19,405,447.1,383.42,437.59,352.85Z" style="fill:#fff"/><path d="M428.49,366.23c15.2,40.79,49.53,59.3,81.83,79.92,33.52,21.39,49.2,51.8,47.69,96.05-28.33-42-68.09-65.76-102-96-11-9.83-20.36-22.15-28.38-34.67C418.9,398,420.62,383,428.49,366.23Z" style="fill:#fff"/><path d="M465.24,309.85c-3.33-23,12.4-41.58,34-42,19.64-.4,36.76,16.82,36.41,36.65-.39,22.38-22.35,39.6-46.59,32.85A33.43,33.43,0,0,1,465.24,309.85Z" style="fill:#fff"/><path d="M573.22,372.82c11.21,24.95-1.19,54.48-34.92,76.9l-20.53-17C536.46,412.56,554.86,392.68,573.22,372.82Z" style="fill:#fff"/><path d="M464.65,260.7l34.94-72,33.76,68.92c-24.91-11.28-46.69-13.46-68.48,3.23Z" style="fill:#fff"/><path d="M446.46,280.07c-11.1,1.64-22.16,2-32.43,5-37.34,11.08-74.25,23.63-111.66,34.48-23.65,6.86-47.89,11.68-73,17.68-.86-6.21-.52-8.56-1.5-10-4-5.94-7.44-13-13-16.75-2.72-1.79-12.9,1.76-14.2,5.06-2.46,6.27-1,14.1-1.13,21.27-.12,6.18,1.56,13.07-.6,18.41-21.11,52-42.82,103.8-64.43,155.62C124,536,124,536,144.85,554.48c36.88,32.65,75.85,37.94,114.34,14.32,11.86-7.28,22-17.36,33.21-25.72,7.75-5.77,7.46-11.53,3.78-20-23.25-53.39-45.88-107-68.64-160.64-2.34-5.49-4.21-11.17-5.81-15.45l224.73-25.77ZM195.27,539.82c-14.68-.77-29.42-.48-46.18-.33A9.06,9.06,0,0,1,140.61,527C163,472,183.85,420.56,204.72,369.15l3.49.71c.43,3.77,1.21,7.55,1.22,11.32.09,47.78-.27,95.56.32,143.34C209.89,535.75,207.49,540.46,195.27,539.82Zm91-11.84a8.26,8.26,0,0,1-7.62,11.35c-19.69,0-37.25.15-54.79-.38-2.4-.07-6.68-5.21-6.69-8-.05-53.52.4-107,.81-160.55,0-.22.78-.44,3.54-1.87Z" style="fill:#fff"/><path d="M608.33,774V761.11a4.22,4.22,0,0,0-4.22-4.22H397a4.22,4.22,0,0,0-4.22,4.22V774a4.23,4.23,0,0,1-4.23,4.23H358.23a4.22,4.22,0,0,0-4.23,4.22v24.62a4.23,4.23,0,0,0,4.23,4.23H642.47a4.22,4.22,0,0,0,4.22-4.23V782.43a4.22,4.22,0,0,0-4.22-4.22H612.56A4.23,4.23,0,0,1,608.33,774Z" style="fill:#fff"/></svg>