<svg xmlns="http://www.w3.org/2000/svg" viewBox="0 0 200 200"><g id="Layer_2" data-name="Layer 2"><g id="Layer_1-2" data-name="Layer 1"><circle cx="100" cy="100" r="100" style="fill:#eb7623"/><path d="M100,11.52A88.48,88.48,0,1,1,11.52,100,88.58,88.58,0,0,1,100,11.52m0-2A90.48,90.48,0,1,0,190.48,100,90.48,90.48,0,0,0,100,9.52Z" style="fill:#fff"/><path d="M156.18,67.52l-43.09-4.94a1.84,1.84,0,0,1-1.63-1.73l-.23-4.91a1.83,1.83,0,0,1,2-1.92c14.46,1.1,27.2,9.64,41.84,11.07a1.86,1.86,0,0,0,2-1.53,1.8,1.8,0,0,1,.26-.67c.76-1.07,1.63-2.48,2.72-2.78a3.88,3.88,0,0,1,3.26,1.44c.59.85.75,2.81.17,3.52-1.35,1.64-.84,2.9-.18,4.47C168.17,81.25,173,93,177.94,104.68a3.61,3.61,0,0,1-.87,4.6c-11.52,11.81-23.14,10.37-33.88-.8-.7-.73-.63-2.85-.15-4,4.7-11.32,9.57-22.57,14.38-33.84l.24-.56A1.84,1.84,0,0,0,156.18,67.52ZM145,105.8a1.83,1.83,0,0,0,1.71,2.52c3.56,0,6.68-.09,9.8.06,2.48.12,3.24-.78,3.22-3.19-.09-10.28,0-20.57-.05-30.85a10,10,0,0,0-.39-2l-.67-.09C154.15,83.15,149.72,94.06,145,105.8Zm29,2.52a1.84,1.84,0,0,0,1.69-2.53C170.89,94.13,166.46,83.2,162,72.22c-.64.35-.8.39-.8.44-.08,11.26-.17,22.51-.14,33.77a2.52,2.52,0,0,0,1.68,1.8C166.31,108.35,169.88,108.33,173.93,108.32Z" style="fill:#fff"/><path d="M100.88,148.24c-8.44-17.38-18.35-35.08-9.79-55.59,6.16,3.91,11,8.79,15.78,13.93s6.27,10.62,3.5,17.3c-3.33,8.05-6.34,16.23-9.49,24.36Z" style="fill:#fff"/><path d="M86.86,69H113a22.53,22.53,0,0,1-12.5,14.14A2.75,2.75,0,0,1,98.34,83,22.56,22.56,0,0,1,86.86,69Z" style="fill:#fff"/><path d="M85,71.84c3.2,8.59,10.42,12.48,17.22,16.82,7.06,4.51,10.36,10.91,10,20.22-6-8.85-14.33-13.84-21.48-20.2a35,35,0,0,1-6-7.29C82.93,78.53,83.29,75.37,85,71.84Z" style="fill:#fff"/><path d="M92.68,60a7.44,7.44,0,0,1,7.16-8.85,7.71,7.71,0,0,1,7.67,7.72,7.55,7.55,0,0,1-9.81,6.91A7,7,0,0,1,92.68,60Z" style="fill:#fff"/><path d="M115.42,73.23c2.35,5.25-.26,11.46-7.36,16.19-1.55-1.28-3.12-2.59-4.32-3.57Z" style="fill:#fff"/><path d="M92.56,49.62l7.35-15.15L107,49c-5.24-2.38-9.83-2.84-14.42.68Z" style="fill:#fff"/><path d="M88.73,53.7a49.19,49.19,0,0,0-6.83,1.06C74,57.09,66.27,59.73,58.39,62c-5,1.44-10.08,2.46-15.35,3.72-.19-1.31-.11-1.8-.32-2.11-.84-1.25-1.57-2.74-2.75-3.52-.57-.38-2.71.37-3,1.06-.51,1.32-.2,3-.23,4.48,0,1.3.32,2.75-.13,3.87-4.44,11-9,21.86-13.57,32.77-2.2,5.29-2.22,5.29,2.18,9.18,7.77,6.87,16,8,24.07,3,2.5-1.53,4.63-3.65,7-5.41,1.64-1.22,1.57-2.43.8-4.21C52.2,93.62,47.43,82.33,42.64,71c-.49-1.15-.89-2.35-1.22-3.25l47.31-5.42ZM35.85,108.38c-3.09-.16-6.2-.1-9.73-.07a1.9,1.9,0,0,1-1.78-2.62l13.5-33.24.73.15A21.55,21.55,0,0,1,38.83,75c0,10.05-.06,20.11.06,30.17C38.92,107.53,38.42,108.52,35.85,108.38ZM55,105.89a1.74,1.74,0,0,1-1.61,2.39c-4.14,0-7.84,0-11.53-.08-.51,0-1.41-1.1-1.41-1.69,0-11.26.09-22.53.17-33.8,0,0,.17-.09.75-.39C45.85,83.34,50.3,94.31,55,105.89Z" style="fill:#fff"/><path d="M122.81,157.68V155a.89.89,0,0,0-.89-.89H78.32a.89.89,0,0,0-.89.89v2.71a.89.89,0,0,1-.89.89H70.15a.89.89,0,0,0-.89.89v5.18a.89.89,0,0,0,.89.89H130a.89.89,0,0,0,.89-.89v-5.18a.89.89,0,0,0-.89-.89H123.7A.89.89,0,0,1,122.81,157.68Z" style="fill:#fff"/></g></g></svg>