<svg xmlns="http://www.w3.org/2000/svg" viewBox="0 0 200 200"><g id="Layer_2" data-name="Layer 2"><g id="Layer_1-2" data-name="Layer 1"><path d="M100,9.28A90.72,90.72,0,1,1,9.28,100,90.83,90.83,0,0,1,100,9.28m0-2A92.72,92.72,0,1,0,192.72,100,92.72,92.72,0,0,0,100,7.28Z" style="fill:#213a1c"/><path d="M100,5A95,95,0,1,1,5,100,95.11,95.11,0,0,1,100,5m0-5A100,100,0,1,0,200,100,100,100,0,0,0,100,0Z" style="fill:#213a1c"/><path d="M161.86,64.24l-47.45-5.45a2,2,0,0,1-1.79-1.9l-.25-5.41a2,2,0,0,1,2.17-2.12c15.92,1.23,29.94,10.63,46.07,12.19a2,2,0,0,0,2.19-1.67,2.11,2.11,0,0,1,.28-.74c.84-1.18,1.8-2.73,3-3.06a4.25,4.25,0,0,1,3.59,1.58c.65.94.82,3.1.18,3.88-1.48,1.8-.92,3.19-.19,4.92,5.4,12.89,10.7,25.83,16.17,38.69a4,4,0,0,1-1,5.07c-12.68,13-25.48,11.42-37.3-.88-.78-.81-.69-3.14-.17-4.42,5.18-12.46,10.54-24.85,15.84-37.26l.27-.62A2,2,0,0,0,161.86,64.24Zm-12.35,42.14a2,2,0,0,0,1.88,2.78c3.92,0,7.36-.09,10.79.07,2.73.13,3.57-.87,3.55-3.51-.1-11.33,0-22.65-.06-34a11.4,11.4,0,0,0-.43-2.2l-.74-.1Zm31.89,2.78a2,2,0,0,0,1.87-2.78l-15-37c-.7.37-.88.42-.88.48-.09,12.39-.19,24.79-.15,37.18a2.79,2.79,0,0,0,1.84,2C173,109.2,177,109.17,181.4,109.16Z" style="fill:#eb7623"/><path d="M101,153.12C91.67,134,80.76,114.49,90.19,91.9c6.78,4.32,12.15,9.69,17.38,15.35s6.9,11.68,3.85,19c-3.67,8.86-7,17.88-10.45,26.83C100.47,153,101.46,153.25,101,153.12Z" style="fill:#e51e25"/><path d="M85.53,65.89h28.73A24.82,24.82,0,0,1,100.5,81.45a3,3,0,0,1-2.33-.2A24.87,24.87,0,0,1,85.53,65.89Z" style="fill:#e51e25"/><path d="M83.42,69c3.53,9.46,11.48,13.75,19,18.53,7.77,5,11.41,12,11.06,22.26C106.88,100,97.66,94.54,89.79,87.54a38.32,38.32,0,0,1-6.57-8C81.2,76.36,81.6,72.88,83.42,69Z" style="fill:#e51e25"/><path d="M91.94,55.92c-.77-5.32,2.88-9.64,7.89-9.74a8.48,8.48,0,0,1,8.44,8.49,8.32,8.32,0,0,1-10.8,7.62A7.77,7.77,0,0,1,91.94,55.92Z" style="fill:#e51e25"/><path d="M117,70.52c2.6,5.78-.27,12.63-8.09,17.82-1.71-1.4-3.44-2.84-4.76-3.93Z" style="fill:#e51e25"/><path d="M91.81,44.53,99.9,27.84c2.68,5.46,5,10.29,7.83,16-5.77-2.62-10.82-3.12-15.87.75Z" style="fill:#eb7623"/><path d="M87.59,49a56,56,0,0,0-7.52,1.16c-8.66,2.57-17.21,5.48-25.88,8-5.49,1.59-11.11,2.7-16.92,4.09-.19-1.44-.12-2-.34-2.32-.93-1.37-1.73-3-3-3.88-.63-.41-3,.41-3.29,1.17-.57,1.46-.23,3.27-.26,4.94,0,1.43.36,3-.14,4.26-4.89,12.06-9.93,24.07-14.94,36.08-2.43,5.83-2.45,5.82,2.4,10.11,8.55,7.57,17.58,8.79,26.51,3.32,2.75-1.69,5.09-4,7.69-6,1.8-1.34,1.73-2.68.88-4.64C47.36,93,42.12,80.54,36.84,68.12c-.54-1.28-1-2.59-1.35-3.59l52.1-6ZM29.36,109.23c-3.4-.18-6.82-.11-10.71-.07a2.1,2.1,0,0,1-2-2.9L31.55,69.67l.81.16a23.47,23.47,0,0,1,.28,2.63c0,11.07-.06,22.15.08,33.22C32.75,108.29,32.19,109.38,29.36,109.23Zm21.1-2.74a1.92,1.92,0,0,1-1.77,2.63c-4.56,0-8.63,0-12.7-.09-.56,0-1.55-1.21-1.55-1.86,0-12.4.09-24.81.19-37.21,0-.06.18-.1.82-.44C40.37,81.65,45.28,93.73,50.46,106.49Z" style="fill:#eb7623"/><path d="M125.11,163.51v-3a1,1,0,0,0-1-1h-48a1,1,0,0,0-1,1v3a1,1,0,0,1-1,1h-7a1,1,0,0,0-1,1v5.71a1,1,0,0,0,1,1H133a1,1,0,0,0,1-1v-5.71a1,1,0,0,0-1-1h-6.94A1,1,0,0,1,125.11,163.51Z" style="fill:#eb7623"/></g></g></svg>