<?xml version="1.0" encoding="utf-8"?>
<!-- Generator: Adobe Illustrator 25.2.1, SVG Export Plug-In . SVG Version: 6.00 Build 0)  -->
<svg version="1.1" id="Layer_1" xmlns="http://www.w3.org/2000/svg" xmlns:xlink="http://www.w3.org/1999/xlink" x="0px" y="0px"
	 viewBox="0 0 356.6 155.1" style="enable-background:new 0 0 356.6 155.1;" xml:space="preserve">
<style type="text/css">
	.st0{enable-background:new    ;}
	.st1{fill:#213A1C;}
	.st2{fill:#EB7623;}
	.st3{fill:#E51E25;}
</style>
<g id="Layer_2_1_">
	<g id="Layer_1-2">
		<g class="st0">
			<path class="st1" d="M138.4,137.1v-34.4h7.9v27.4H163v7H138.4z"/>
		</g>
		<g class="st0">
			<path class="st1" d="M172.5,137.6c-1.3,0-2.4-0.2-3.5-0.6c-1.1-0.4-2-1-2.8-1.7c-0.8-0.7-1.4-1.6-1.8-2.6c-0.5-1-0.7-2.1-0.7-3.2
				c0-1.3,0.3-2.4,0.8-3.4s1.3-1.9,2.3-2.7c1-0.7,2.1-1.3,3.4-1.7c1.3-0.4,2.8-0.6,4.4-0.6c1.1,0,2.1,0.1,3.1,0.3
				c1,0.2,1.9,0.4,2.6,0.8v-1.2c0-2.9-1.7-4.4-5.1-4.4c-1.4,0-2.7,0.2-4,0.7c-1.3,0.5-2.6,1.2-4,2.1l-2.3-4.8
				c1.7-1.1,3.4-1.9,5.2-2.5c1.8-0.5,3.7-0.8,5.8-0.8c3.8,0,6.8,0.9,8.9,2.7c2.1,1.8,3.1,4.5,3.1,7.9v6.5c0,0.8,0.1,1.3,0.4,1.6
				c0.3,0.3,0.8,0.5,1.5,0.6v6.5c-0.7,0.2-1.4,0.3-2.1,0.3c-0.6,0-1.2,0.1-1.7,0.1c-1.4,0-2.5-0.3-3.2-0.9c-0.7-0.5-1.2-1.3-1.4-2.4
				l-0.1-1.2c-1.1,1.5-2.5,2.6-4,3.3C175.9,137.2,174.2,137.6,172.5,137.6z M174.8,132c0.8,0,1.7-0.1,2.4-0.4c0.8-0.3,1.4-0.7,2-1.2
				c0.7-0.6,1.1-1.2,1.1-1.8v-2.4c-0.7-0.3-1.4-0.5-2.2-0.6c-0.8-0.1-1.5-0.2-2.2-0.2c-1.4,0-2.6,0.3-3.5,1
				c-0.9,0.6-1.4,1.5-1.4,2.5c0,0.9,0.4,1.7,1.1,2.3C172.8,131.7,173.7,132,174.8,132z"/>
		</g>
		<g class="st0">
			<path class="st1" d="M200.2,102.8h7.4l3.4,11l3.5-11h7.3l-5.8,16l3.5,9.2l8.7-25.3h8.6l-13.7,34.4h-6.7l-5.4-13.5l-5.5,13.5H199
				l-13.7-34.4h8.6l8.7,25.3l3.4-9.2L200.2,102.8z"/>
		</g>
		<g class="st0">
			<path class="st1" d="M245.4,137.6c-2.2,0-4.1-0.4-5.8-1.1c-1.7-0.7-3.1-1.7-4.3-2.9c-1.2-1.2-2-2.6-2.6-4.2
				c-0.6-1.6-0.9-3.3-0.9-5c0-1.7,0.3-3.4,0.9-5c0.6-1.6,1.5-3,2.6-4.2c1.2-1.2,2.6-2.2,4.3-2.9c1.7-0.7,3.6-1.1,5.8-1.1
				c2.2,0,4.1,0.4,5.8,1.1c1.7,0.7,3.1,1.7,4.3,2.9c1.2,1.2,2,2.6,2.7,4.2c0.6,1.6,0.9,3.3,0.9,5c0,1.7-0.3,3.4-0.9,5
				c-0.6,1.6-1.5,3-2.6,4.2c-1.2,1.2-2.6,2.2-4.3,2.9C249.5,137.2,247.6,137.6,245.4,137.6z M239.7,124.4c0,2,0.5,3.6,1.6,4.8
				c1.1,1.2,2.4,1.8,4.1,1.8c0.8,0,1.5-0.2,2.2-0.5c0.7-0.3,1.3-0.8,1.8-1.4s0.9-1.3,1.2-2.1c0.3-0.8,0.4-1.7,0.4-2.7
				c0-2-0.5-3.6-1.6-4.8c-1.1-1.2-2.4-1.8-4-1.8c-0.8,0-1.6,0.2-2.3,0.5c-0.7,0.3-1.3,0.8-1.8,1.4c-0.5,0.6-0.9,1.3-1.2,2.1
				S239.7,123.4,239.7,124.4z"/>
			<path class="st1" d="M301,137.1h-7.7v-14.3c0-1.7-0.3-2.9-0.9-3.7c-0.6-0.8-1.4-1.1-2.4-1.1c-1,0-2,0.4-3,1.3
				c-1,0.8-1.7,1.9-2.2,3.2v14.6H277v-14.3c0-1.7-0.3-2.9-0.9-3.7c-0.6-0.8-1.4-1.1-2.4-1.1c-1,0-2,0.4-3,1.2
				c-1,0.8-1.7,1.9-2.2,3.3v14.6h-7.7v-25.4h7v4.3c0.9-1.5,2.2-2.7,3.8-3.5c1.6-0.8,3.5-1.2,5.6-1.2c1,0,2,0.1,2.8,0.4
				c0.8,0.3,1.5,0.6,2.1,1.1c0.6,0.5,1,1,1.4,1.6c0.4,0.6,0.6,1.2,0.8,1.9c0.9-1.6,2.2-2.8,3.8-3.7c1.6-0.9,3.4-1.3,5.4-1.3
				c1.6,0,2.9,0.3,3.9,0.9c1,0.6,1.8,1.4,2.3,2.3c0.5,1,0.9,2,1.1,3.1s0.3,2.2,0.3,3.3V137.1z"/>
			<path class="st1" d="M316.3,137.6c-2.1,0-4-0.3-5.7-1s-3.1-1.6-4.3-2.8c-1.2-1.2-2.1-2.6-2.7-4.1c-0.6-1.6-0.9-3.2-0.9-4.9
				c0-1.8,0.3-3.6,0.9-5.2c0.6-1.6,1.5-3.1,2.7-4.3c1.2-1.2,2.6-2.2,4.3-2.9s3.6-1.1,5.8-1.1s4.1,0.4,5.8,1.1s3.1,1.7,4.3,2.9
				c1.2,1.2,2,2.6,2.6,4.2c0.6,1.6,0.9,3.2,0.9,5c0,0.5,0,0.9,0,1.3c0,0.4-0.1,0.8-0.1,1.1h-18.8c0.1,1.7,0.8,3,1.9,3.9
				s2.4,1.3,3.8,1.3c1.1,0,2.2-0.3,3.3-0.8c1-0.5,1.8-1.3,2.1-2.2l6.6,1.8c-1,2-2.5,3.6-4.6,4.9
				C321.7,136.9,319.2,137.6,316.3,137.6z M321.7,122c-0.2-1.6-0.7-2.9-1.7-3.8c-1-0.9-2.2-1.4-3.7-1.4c-1.5,0-2.8,0.5-3.8,1.4
				c-1,1-1.6,2.2-1.7,3.8H321.7z"/>
		</g>
		<g class="st0">
			<path class="st1" d="M355.9,137.1h-7.7v-14.3c0-1.7-0.3-2.9-0.9-3.7c-0.6-0.8-1.5-1.1-2.5-1.1c-0.5,0-1.1,0.1-1.7,0.3
				c-0.6,0.2-1.1,0.5-1.6,0.9c-0.5,0.4-1,0.9-1.4,1.4s-0.7,1.1-1,1.8v14.6h-7.7v-25.4h7v4.3c0.9-1.5,2.3-2.7,4-3.5s3.7-1.2,5.9-1.2
				c1.6,0,3,0.3,4,0.9c1,0.6,1.8,1.4,2.3,2.3s0.9,2,1.1,3.1c0.2,1.1,0.3,2.2,0.3,3.3V137.1z"/>
		</g>
		<g class="st0">
			<path class="st1" d="M139.4,152.3v-8.7h0.8v8h5v0.8H139.4z"/>
		</g>
		<g class="st0">
			<path class="st1" d="M148.9,152.4c-0.3,0-0.6-0.1-0.9-0.2c-0.3-0.1-0.5-0.2-0.7-0.4c-0.2-0.2-0.3-0.4-0.4-0.6
				c-0.1-0.2-0.2-0.5-0.2-0.7c0-0.3,0.1-0.6,0.2-0.8c0.1-0.2,0.3-0.4,0.6-0.6s0.5-0.3,0.9-0.4c0.3-0.1,0.7-0.1,1.1-0.1
				c0.3,0,0.6,0,1,0.1c0.3,0.1,0.6,0.1,0.9,0.2v-0.6c0-0.6-0.2-1-0.5-1.3c-0.3-0.3-0.8-0.5-1.3-0.5c-0.3,0-0.7,0.1-1,0.2
				c-0.3,0.1-0.7,0.3-1,0.6l-0.3-0.6c0.4-0.3,0.8-0.5,1.2-0.6c0.4-0.1,0.8-0.2,1.2-0.2c0.8,0,1.4,0.2,1.9,0.7
				c0.5,0.5,0.7,1.1,0.7,1.9v2.9c0,0.2,0.1,0.3,0.3,0.3v0.7c-0.1,0-0.1,0-0.2,0s-0.1,0-0.1,0c-0.2,0-0.3,0-0.4-0.1
				c-0.1-0.1-0.2-0.2-0.2-0.4l0-0.5c-0.3,0.4-0.6,0.7-1.1,0.9C149.8,152.3,149.3,152.4,148.9,152.4z M149.1,151.8
				c0.4,0,0.7-0.1,1.1-0.2c0.4-0.2,0.7-0.4,0.9-0.7c0.1-0.1,0.1-0.2,0.1-0.2c0-0.1,0.1-0.2,0.1-0.2v-1c-0.3-0.1-0.6-0.2-0.9-0.2
				c-0.3-0.1-0.6-0.1-0.9-0.1c-0.6,0-1.1,0.1-1.5,0.4s-0.6,0.6-0.6,1c0,0.2,0,0.3,0.1,0.5c0.1,0.2,0.2,0.3,0.3,0.4
				c0.1,0.1,0.3,0.2,0.5,0.3S148.8,151.8,149.1,151.8z"/>
		</g>
		<g class="st0">
			<path class="st1" d="M162.5,145.9h0.8l-2.7,6.4h-0.7l-1.4-3.3l-1.4,3.3h-0.7l-2.7-6.4h0.8l2.3,5.5l1.2-2.9l-1.1-2.6h0.7l0.8,2.1
				l0.8-2.1h0.7l-1.1,2.6l1.2,2.9L162.5,145.9z"/>
		</g>
		<g class="st0">
			<path class="st1" d="M169.1,152.3v-5h-0.9v-0.7h0.9v-0.9c0-0.8,0.2-1.4,0.5-1.8c0.3-0.4,0.8-0.7,1.4-0.7c0.2,0,0.5,0,0.7,0.1
				c0.2,0.1,0.4,0.2,0.6,0.3l-0.3,0.6c-0.1-0.1-0.3-0.2-0.4-0.2c-0.2,0-0.3-0.1-0.5-0.1c-0.4,0-0.7,0.2-0.9,0.5s-0.3,0.7-0.3,1.3
				v0.9h1.8v0.7h-1.8v5H169.1z"/>
		</g>
		<g class="st0">
			<path class="st1" d="M176.4,152.4c-0.5,0-0.9-0.1-1.3-0.3c-0.4-0.2-0.7-0.4-1-0.7c-0.3-0.3-0.5-0.7-0.7-1.1
				c-0.2-0.4-0.2-0.8-0.2-1.3c0-0.5,0.1-0.9,0.2-1.3s0.4-0.8,0.7-1.1c0.3-0.3,0.6-0.5,1-0.7c0.4-0.2,0.8-0.3,1.3-0.3
				s0.9,0.1,1.3,0.3c0.4,0.2,0.7,0.4,1,0.7c0.3,0.3,0.5,0.7,0.7,1.1c0.2,0.4,0.2,0.8,0.2,1.3c0,0.4-0.1,0.9-0.2,1.3
				c-0.2,0.4-0.4,0.8-0.7,1.1c-0.3,0.3-0.6,0.5-1,0.7C177.2,152.3,176.8,152.4,176.4,152.4z M174,149.1c0,0.4,0.1,0.7,0.2,1
				c0.1,0.3,0.3,0.6,0.5,0.8c0.2,0.2,0.5,0.4,0.7,0.5c0.3,0.1,0.6,0.2,0.9,0.2s0.6-0.1,0.9-0.2c0.3-0.1,0.5-0.3,0.7-0.6
				s0.4-0.5,0.5-0.8c0.1-0.3,0.2-0.6,0.2-1c0-0.4-0.1-0.7-0.2-1c-0.1-0.3-0.3-0.6-0.5-0.8s-0.5-0.4-0.7-0.6
				c-0.3-0.1-0.6-0.2-0.9-0.2s-0.6,0.1-0.9,0.2c-0.3,0.1-0.5,0.3-0.7,0.6c-0.2,0.2-0.4,0.5-0.5,0.8C174.1,148.4,174,148.8,174,149.1
				z"/>
		</g>
		<g class="st0">
			<path class="st1" d="M184.8,146.6c-0.6,0-1.1,0.2-1.5,0.5c-0.4,0.3-0.7,0.7-0.9,1.2v4h-0.8v-6.4h0.8v1.5c0.2-0.5,0.5-0.8,0.9-1.1
				c0.4-0.3,0.7-0.4,1.2-0.4c0.1,0,0.1,0,0.2,0s0.1,0,0.2,0V146.6z"/>
		</g>
		<g class="st0">
			<path class="st1" d="M193.3,143.7h0.8l1.2,3.1l1.2-3.1h0.8l-1.5,3.7l1.7,3.9l3.2-7.7h0.9l-3.7,8.7h-0.8l-1.8-4.3l-1.8,4.3h-0.8
				l-3.7-8.7h0.9l3.2,7.7l1.7-3.9L193.3,143.7z"/>
		</g>
		<g class="st0">
			<path class="st1" d="M205.4,152.4c-0.5,0-0.9-0.1-1.3-0.3c-0.4-0.2-0.7-0.4-1-0.7s-0.5-0.7-0.7-1.1s-0.2-0.8-0.2-1.3
				c0-0.5,0.1-0.9,0.2-1.3c0.2-0.4,0.4-0.8,0.7-1.1c0.3-0.3,0.6-0.5,1-0.7c0.4-0.2,0.8-0.3,1.3-0.3c0.5,0,0.9,0.1,1.3,0.3
				c0.4,0.2,0.7,0.4,1,0.7c0.3,0.3,0.5,0.7,0.7,1.1c0.2,0.4,0.2,0.8,0.2,1.3c0,0.4-0.1,0.9-0.2,1.3c-0.2,0.4-0.4,0.8-0.7,1.1
				s-0.6,0.5-1,0.7C206.3,152.3,205.9,152.4,205.4,152.4z M203.1,149.1c0,0.4,0.1,0.7,0.2,1c0.1,0.3,0.3,0.6,0.5,0.8
				s0.5,0.4,0.7,0.5c0.3,0.1,0.6,0.2,0.9,0.2s0.6-0.1,0.9-0.2c0.3-0.1,0.5-0.3,0.7-0.6s0.4-0.5,0.5-0.8c0.1-0.3,0.2-0.6,0.2-1
				c0-0.4-0.1-0.7-0.2-1c-0.1-0.3-0.3-0.6-0.5-0.8s-0.5-0.4-0.7-0.6c-0.3-0.1-0.6-0.2-0.9-0.2s-0.6,0.1-0.9,0.2
				c-0.3,0.1-0.5,0.3-0.7,0.6c-0.2,0.2-0.4,0.5-0.5,0.8S203.1,148.8,203.1,149.1z"/>
			<path class="st1" d="M220.2,152.3h-0.8v-3.6c0-0.7-0.1-1.3-0.3-1.6c-0.2-0.4-0.6-0.5-1.1-0.5c-0.2,0-0.5,0-0.7,0.1
				s-0.4,0.2-0.6,0.4c-0.2,0.2-0.3,0.4-0.5,0.6c-0.1,0.2-0.2,0.5-0.3,0.7v3.9h-0.8v-3.6c0-0.8-0.1-1.3-0.3-1.7s-0.6-0.5-1.1-0.5
				c-0.5,0-0.9,0.2-1.3,0.5c-0.4,0.3-0.6,0.8-0.8,1.3v3.9h-0.8v-6.4h0.8v1.4c0.3-0.5,0.6-0.9,1-1.1s0.9-0.4,1.4-0.4
				c0.5,0,1,0.2,1.3,0.5s0.5,0.7,0.6,1.2c0.6-1.1,1.4-1.6,2.5-1.6c0.4,0,0.7,0.1,0.9,0.2c0.2,0.1,0.5,0.3,0.6,0.6
				c0.2,0.2,0.3,0.5,0.3,0.9s0.1,0.7,0.1,1.1V152.3z"/>
			<path class="st1" d="M225.5,152.4c-0.5,0-0.9-0.1-1.3-0.3c-0.4-0.2-0.7-0.4-1-0.7c-0.3-0.3-0.5-0.7-0.7-1.1
				c-0.2-0.4-0.2-0.8-0.2-1.3c0-0.5,0.1-0.9,0.2-1.3c0.2-0.4,0.4-0.7,0.7-1c0.3-0.3,0.6-0.5,1-0.7c0.4-0.2,0.8-0.3,1.3-0.3
				c0.5,0,0.9,0.1,1.3,0.3c0.4,0.2,0.7,0.4,1,0.7s0.5,0.7,0.7,1c0.2,0.4,0.2,0.8,0.2,1.3c0,0.1,0,0.1,0,0.2c0,0.1,0,0.1,0,0.1h-5.5
				c0,0.3,0.1,0.7,0.2,1c0.1,0.3,0.3,0.5,0.5,0.8s0.5,0.4,0.7,0.5c0.3,0.1,0.6,0.2,0.9,0.2c0.2,0,0.4,0,0.6-0.1
				c0.2-0.1,0.4-0.1,0.6-0.2c0.2-0.1,0.3-0.2,0.5-0.4c0.1-0.1,0.2-0.3,0.3-0.5l0.7,0.2c-0.1,0.2-0.2,0.5-0.4,0.6
				c-0.2,0.2-0.4,0.4-0.6,0.5s-0.5,0.3-0.8,0.3C226.1,152.4,225.8,152.4,225.5,152.4z M227.9,148.8c0-0.3-0.1-0.7-0.2-0.9
				c-0.1-0.3-0.3-0.5-0.5-0.7c-0.2-0.2-0.5-0.4-0.7-0.5c-0.3-0.1-0.6-0.2-0.9-0.2c-0.3,0-0.6,0.1-0.9,0.2c-0.3,0.1-0.5,0.3-0.7,0.5
				c-0.2,0.2-0.4,0.5-0.5,0.7c-0.1,0.3-0.2,0.6-0.2,0.9H227.9z"/>
			<path class="st1" d="M236,152.3h-0.8v-3.6c0-0.8-0.1-1.3-0.3-1.7c-0.2-0.3-0.6-0.5-1-0.5c-0.2,0-0.5,0-0.7,0.1
				c-0.2,0.1-0.5,0.2-0.7,0.4c-0.2,0.2-0.4,0.4-0.6,0.6c-0.2,0.2-0.3,0.5-0.4,0.7v3.9h-0.8v-6.4h0.8v1.4c0.1-0.2,0.3-0.4,0.5-0.6
				s0.4-0.4,0.6-0.5s0.5-0.2,0.8-0.3c0.3-0.1,0.5-0.1,0.8-0.1c0.4,0,0.7,0.1,0.9,0.2c0.2,0.1,0.4,0.3,0.6,0.6s0.3,0.5,0.3,0.9
				s0.1,0.7,0.1,1.1V152.3z"/>
			<path class="st1" d="M238.3,152.5c0.1,0,0.1,0,0.2,0c0.1,0,0.1-0.1,0.1-0.2v-1.1h0.7v1.3c0,0.1,0,0.3-0.1,0.4
				c-0.1,0.1-0.1,0.2-0.2,0.2c-0.1,0.1-0.2,0.1-0.3,0.1c-0.1,0-0.2,0-0.3,0V152.5z"/>
		</g>
		<g class="st0">
			<path class="st1" d="M248.8,152.4c-0.5,0-1-0.1-1.4-0.4c-0.4-0.3-0.8-0.6-1-1v1.2h-0.7v-9h0.8v3.9c0.3-0.4,0.6-0.8,1-1.1
				c0.4-0.3,0.9-0.4,1.4-0.4c0.4,0,0.8,0.1,1.2,0.3s0.7,0.4,0.9,0.8c0.2,0.3,0.4,0.7,0.6,1.1c0.1,0.4,0.2,0.8,0.2,1.2
				c0,0.5-0.1,0.9-0.2,1.3c-0.2,0.4-0.4,0.8-0.6,1s-0.6,0.5-1,0.7C249.6,152.3,249.2,152.4,248.8,152.4z M248.6,151.7
				c0.4,0,0.7-0.1,1-0.2c0.3-0.1,0.5-0.3,0.7-0.6s0.4-0.5,0.5-0.8c0.1-0.3,0.2-0.6,0.2-1c0-0.3-0.1-0.7-0.2-1
				c-0.1-0.3-0.3-0.6-0.5-0.8c-0.2-0.2-0.4-0.4-0.7-0.6c-0.3-0.1-0.6-0.2-0.9-0.2c-0.3,0-0.5,0-0.7,0.1c-0.2,0.1-0.4,0.2-0.6,0.4
				s-0.4,0.3-0.5,0.5c-0.2,0.2-0.3,0.4-0.4,0.6v2c0,0.2,0.1,0.4,0.3,0.6c0.1,0.2,0.3,0.4,0.5,0.5c0.2,0.1,0.4,0.2,0.7,0.3
				C248.1,151.7,248.4,151.7,248.6,151.7z"/>
		</g>
		<g class="st0">
			<path class="st1" d="M254.1,154.3c0,0,0.1,0,0.1,0c0,0,0.1,0,0.1,0c0.1,0,0.2,0,0.3,0c0.1,0,0.2,0,0.2,0c0,0,0.1-0.1,0.1-0.1
				c0-0.1,0.1-0.1,0.2-0.3c0.1-0.1,0.2-0.3,0.3-0.6c0.1-0.2,0.2-0.6,0.4-1l-2.8-6.4h0.9l2.4,5.6l2.2-5.6h0.8l-3.3,8.3
				c-0.1,0.3-0.3,0.5-0.5,0.7s-0.5,0.2-0.9,0.2c-0.2,0-0.3,0-0.4,0V154.3z"/>
		</g>
		<g class="st0">
			<path class="st1" d="M267.7,143.7h0.8l1.2,3.1l1.2-3.1h0.8l-1.5,3.7l1.7,3.9l3.2-7.7h0.9l-3.7,8.7h-0.8l-1.8-4.3l-1.8,4.3h-0.8
				l-3.7-8.7h0.9l3.2,7.7l1.7-3.9L267.7,143.7z"/>
		</g>
		<g class="st0">
			<path class="st1" d="M279.8,152.4c-0.5,0-0.9-0.1-1.3-0.3c-0.4-0.2-0.7-0.4-1-0.7c-0.3-0.3-0.5-0.7-0.7-1.1
				c-0.2-0.4-0.2-0.8-0.2-1.3c0-0.5,0.1-0.9,0.2-1.3c0.2-0.4,0.4-0.8,0.7-1.1c0.3-0.3,0.6-0.5,1-0.7c0.4-0.2,0.8-0.3,1.3-0.3
				c0.5,0,0.9,0.1,1.3,0.3c0.4,0.2,0.7,0.4,1,0.7c0.3,0.3,0.5,0.7,0.7,1.1c0.2,0.4,0.2,0.8,0.2,1.3c0,0.4-0.1,0.9-0.2,1.3
				c-0.2,0.4-0.4,0.8-0.7,1.1c-0.3,0.3-0.6,0.5-1,0.7C280.7,152.3,280.3,152.4,279.8,152.4z M277.5,149.1c0,0.4,0.1,0.7,0.2,1
				c0.1,0.3,0.3,0.6,0.5,0.8c0.2,0.2,0.5,0.4,0.7,0.5s0.6,0.2,0.9,0.2s0.6-0.1,0.9-0.2c0.3-0.1,0.5-0.3,0.7-0.6s0.4-0.5,0.5-0.8
				c0.1-0.3,0.2-0.6,0.2-1c0-0.4-0.1-0.7-0.2-1c-0.1-0.3-0.3-0.6-0.5-0.8s-0.5-0.4-0.7-0.6c-0.3-0.1-0.6-0.2-0.9-0.2
				s-0.6,0.1-0.9,0.2c-0.3,0.1-0.5,0.3-0.7,0.6s-0.4,0.5-0.5,0.8C277.5,148.4,277.5,148.8,277.5,149.1z"/>
			<path class="st1" d="M294.6,152.3h-0.8v-3.6c0-0.7-0.1-1.3-0.3-1.6c-0.2-0.4-0.6-0.5-1.1-0.5c-0.2,0-0.5,0-0.7,0.1
				c-0.2,0.1-0.4,0.2-0.6,0.4c-0.2,0.2-0.3,0.4-0.5,0.6c-0.1,0.2-0.2,0.5-0.3,0.7v3.9h-0.8v-3.6c0-0.8-0.1-1.3-0.3-1.7
				c-0.2-0.3-0.6-0.5-1.1-0.5c-0.5,0-0.9,0.2-1.3,0.5c-0.4,0.3-0.6,0.8-0.8,1.3v3.9h-0.8v-6.4h0.8v1.4c0.3-0.5,0.6-0.9,1-1.1
				s0.9-0.4,1.4-0.4c0.5,0,1,0.2,1.3,0.5c0.3,0.3,0.5,0.7,0.6,1.2c0.6-1.1,1.4-1.6,2.5-1.6c0.4,0,0.7,0.1,0.9,0.2s0.5,0.3,0.6,0.6
				c0.2,0.2,0.3,0.5,0.3,0.9c0.1,0.3,0.1,0.7,0.1,1.1V152.3z"/>
			<path class="st1" d="M299.9,152.4c-0.5,0-0.9-0.1-1.3-0.3c-0.4-0.2-0.7-0.4-1-0.7c-0.3-0.3-0.5-0.7-0.7-1.1
				c-0.2-0.4-0.2-0.8-0.2-1.3c0-0.5,0.1-0.9,0.2-1.3c0.2-0.4,0.4-0.7,0.7-1c0.3-0.3,0.6-0.5,1-0.7c0.4-0.2,0.8-0.3,1.3-0.3
				s0.9,0.1,1.3,0.3c0.4,0.2,0.7,0.4,1,0.7s0.5,0.7,0.7,1c0.2,0.4,0.2,0.8,0.2,1.3c0,0.1,0,0.1,0,0.2s0,0.1,0,0.1h-5.5
				c0,0.3,0.1,0.7,0.2,1c0.1,0.3,0.3,0.5,0.5,0.8c0.2,0.2,0.5,0.4,0.7,0.5c0.3,0.1,0.6,0.2,0.9,0.2c0.2,0,0.4,0,0.6-0.1
				s0.4-0.1,0.6-0.2c0.2-0.1,0.3-0.2,0.5-0.4c0.1-0.1,0.2-0.3,0.3-0.5l0.7,0.2c-0.1,0.2-0.2,0.5-0.4,0.6c-0.2,0.2-0.4,0.4-0.6,0.5
				s-0.5,0.3-0.8,0.3C300.5,152.4,300.2,152.4,299.9,152.4z M302.2,148.8c0-0.3-0.1-0.7-0.2-0.9s-0.3-0.5-0.5-0.7
				c-0.2-0.2-0.5-0.4-0.7-0.5c-0.3-0.1-0.6-0.2-0.9-0.2s-0.6,0.1-0.9,0.2c-0.3,0.1-0.5,0.3-0.7,0.5c-0.2,0.2-0.4,0.5-0.5,0.7
				c-0.1,0.3-0.2,0.6-0.2,0.9H302.2z"/>
			<path class="st1" d="M310.4,152.3h-0.8v-3.6c0-0.8-0.1-1.3-0.3-1.7c-0.2-0.3-0.6-0.5-1-0.5c-0.2,0-0.5,0-0.7,0.1
				c-0.2,0.1-0.5,0.2-0.7,0.4c-0.2,0.2-0.4,0.4-0.6,0.6c-0.2,0.2-0.3,0.5-0.4,0.7v3.9H305v-6.4h0.8v1.4c0.1-0.2,0.3-0.4,0.5-0.6
				s0.4-0.4,0.6-0.5c0.2-0.1,0.5-0.2,0.8-0.3c0.3-0.1,0.5-0.1,0.8-0.1c0.4,0,0.7,0.1,0.9,0.2s0.4,0.3,0.6,0.6
				c0.1,0.2,0.3,0.5,0.3,0.9s0.1,0.7,0.1,1.1V152.3z"/>
			<path class="st1" d="M316.7,144.6v-1.2h0.8v1.2H316.7z M316.7,152.3v-6.4h0.8v6.4H316.7z"/>
			<path class="st1" d="M325.5,152.3h-0.8v-3.6c0-0.8-0.1-1.3-0.3-1.7c-0.2-0.3-0.6-0.5-1-0.5c-0.2,0-0.5,0-0.7,0.1
				c-0.2,0.1-0.5,0.2-0.7,0.4c-0.2,0.2-0.4,0.4-0.6,0.6c-0.2,0.2-0.3,0.5-0.4,0.7v3.9h-0.8v-6.4h0.8v1.4c0.1-0.2,0.3-0.4,0.5-0.6
				s0.4-0.4,0.6-0.5s0.5-0.2,0.8-0.3c0.3-0.1,0.5-0.1,0.8-0.1c0.4,0,0.7,0.1,0.9,0.2c0.2,0.1,0.4,0.3,0.6,0.6s0.3,0.5,0.3,0.9
				s0.1,0.7,0.1,1.1V152.3z"/>
			<path class="st1" d="M332,152.3v-8.7h0.8v8h5v0.8H332z"/>
		</g>
		<g class="st0">
			<path class="st1" d="M341.5,152.4c-0.3,0-0.6-0.1-0.9-0.2c-0.3-0.1-0.5-0.2-0.7-0.4c-0.2-0.2-0.3-0.4-0.4-0.6
				c-0.1-0.2-0.2-0.5-0.2-0.7c0-0.3,0.1-0.6,0.2-0.8c0.1-0.2,0.3-0.4,0.6-0.6s0.5-0.3,0.9-0.4c0.3-0.1,0.7-0.1,1.1-0.1
				c0.3,0,0.6,0,1,0.1c0.3,0.1,0.6,0.1,0.9,0.2v-0.6c0-0.6-0.2-1-0.5-1.3c-0.3-0.3-0.8-0.5-1.3-0.5c-0.3,0-0.7,0.1-1,0.2
				c-0.3,0.1-0.7,0.3-1,0.6l-0.3-0.6c0.4-0.3,0.8-0.5,1.2-0.6c0.4-0.1,0.8-0.2,1.2-0.2c0.8,0,1.4,0.2,1.9,0.7
				c0.5,0.5,0.7,1.1,0.7,1.9v2.9c0,0.2,0.1,0.3,0.3,0.3v0.7c-0.1,0-0.1,0-0.2,0c-0.1,0-0.1,0-0.1,0c-0.2,0-0.3,0-0.4-0.1
				c-0.1-0.1-0.2-0.2-0.2-0.4l0-0.5c-0.3,0.4-0.6,0.7-1.1,0.9C342.4,152.3,342,152.4,341.5,152.4z M341.7,151.8
				c0.4,0,0.7-0.1,1.1-0.2c0.4-0.2,0.7-0.4,0.9-0.7c0.1-0.1,0.1-0.2,0.1-0.2c0-0.1,0.1-0.2,0.1-0.2v-1c-0.3-0.1-0.6-0.2-0.9-0.2
				c-0.3-0.1-0.6-0.1-0.9-0.1c-0.6,0-1.1,0.1-1.5,0.4c-0.4,0.2-0.6,0.6-0.6,1c0,0.2,0,0.3,0.1,0.5c0.1,0.2,0.2,0.3,0.3,0.4
				c0.1,0.1,0.3,0.2,0.5,0.3S341.5,151.8,341.7,151.8z"/>
		</g>
		<g class="st0">
			<path class="st1" d="M355.2,145.9h0.8l-2.7,6.4h-0.7l-1.4-3.3l-1.4,3.3h-0.7l-2.7-6.4h0.8l2.3,5.5l1.2-2.9l-1.1-2.6h0.7l0.8,2.1
				l0.8-2.1h0.7l-1.1,2.6l1.2,2.9L355.2,145.9z"/>
		</g>
		<path class="st2" d="M155.5,38.2l-49.8-5.7c-1-0.1-1.8-1-1.9-2l-0.3-5.7c-0.1-1.2,0.9-2.2,2-2.2c0.1,0,0.2,0,0.2,0
			c16.7,1.3,31.4,11.2,48.3,12.8c1.1,0.1,2.1-0.7,2.3-1.8c0-0.3,0.1-0.5,0.3-0.8c0.9-1.2,1.9-2.9,3.1-3.2c1.4-0.1,2.9,0.5,3.8,1.7
			c0.7,1,0.9,3.3,0.2,4.1c-1.6,1.9-1,3.3-0.2,5.2c5.7,13.5,11.2,27.1,17,40.6c1,1.8,0.6,4-1,5.3c-13.3,13.6-26.7,12-39.1-0.9
			c-0.8-0.8-0.7-3.3-0.2-4.6c5.4-13.1,11.1-26.1,16.6-39.1l0.3-0.7c0.5-1.1-0.1-2.3-1.1-2.8C155.9,38.3,155.7,38.2,155.5,38.2z
			 M142.5,82.4c-0.4,1.1,0.1,2.3,1.2,2.8c0.3,0.1,0.5,0.2,0.8,0.2c4.1,0,7.7-0.1,11.3,0.1c2.9,0.1,3.8-0.9,3.7-3.7
			c-0.1-11.9,0-23.8-0.1-35.6c-0.1-0.8-0.2-1.6-0.4-2.3l-0.8-0.1C153.1,56.2,148,68.8,142.5,82.4L142.5,82.4z M176,85.3
			c1.2,0,2.1-0.9,2.2-2.1c0-0.3,0-0.6-0.2-0.8c-5.5-13.5-10.6-26.1-15.7-38.8c-0.7,0.4-0.9,0.5-0.9,0.5c-0.1,13-0.2,26-0.2,39
			c0.2,1,0.9,1.7,1.8,2.1C167.2,85.3,171.3,85.3,176,85.3z"/>
		<path class="st3" d="M91.6,131.4c-9.8-20.1-21.2-40.5-11.3-64.2c7.1,4.5,12.7,10.2,18.2,16.1s7.2,12.3,4,20
			C98.7,112.6,95.2,122.1,91.6,131.4L91.6,131.4z"/>
		<path class="st3" d="M75.4,39.9h30.1c-2.2,7.3-7.5,13.3-14.4,16.3c-0.8,0.2-1.7,0.2-2.4-0.2C82.2,52.7,77.4,46.9,75.4,39.9z"/>
		<path class="st3" d="M73.2,43.2c3.7,9.9,12,14.4,19.9,19.4c8.2,5.2,12,12.6,11.6,23.4c-6.9-10.2-16.5-16-24.8-23.3
			c-2.7-2.5-5-5.3-6.9-8.4C70.8,50.9,71.3,47.2,73.2,43.2z"/>
		<path class="st3" d="M82.1,29.5c-0.8-5.6,3-10.1,8.3-10.2c4.9,0,8.9,4,8.8,8.9c-0.2,4.8-4.2,8.6-9,8.4c-0.8,0-1.6-0.2-2.3-0.4
			C84.8,35.3,82.6,32.6,82.1,29.5z"/>
		<path class="st3" d="M108.4,44.8c2.7,6.1-0.3,13.2-8.5,18.7l-5-4.1L108.4,44.8z"/>
		<path class="st2" d="M82,17.5c2.7-5.6,5.4-11.2,8.5-17.5c2.8,5.7,5.3,10.8,8.2,16.8C92.6,14,87.3,13.5,82,17.5L82,17.5z"/>
		<path class="st2" d="M77.6,22.2c-2.7,0.2-5.3,0.6-7.9,1.2c-9.1,2.7-18.1,5.8-27.2,8.4c-5.8,1.7-11.6,2.8-17.8,4.3
			c-0.2-1.5-0.1-2.1-0.4-2.4c-1-1.5-1.8-3.2-3.2-4.1c-0.7-0.4-3.1,0.4-3.5,1.2c-0.6,1.5-0.2,3.4-0.3,5.2c0,1.5,0.4,3.2-0.1,4.5
			C12.2,53.2,6.9,65.7,1.7,78.3c-2.5,6.1-2.6,6.1,2.5,10.7c9,7.9,18.5,9.2,27.8,3.5c2.9-1.8,5.3-4.2,8.1-6.2
			c1.9-1.4,1.8-2.8,0.9-4.9c-5.7-13-11.2-26-16.7-39.1c-0.6-1.3-1-2.7-1.4-3.8l54.7-6.3V22.2z M16.5,85.4c-3.6-0.2-7.1-0.1-11.2-0.1
			c-1.2,0-2.2-1-2.2-2.2c0-0.3,0-0.6,0.2-0.8c5.4-13.4,10.5-25.9,15.6-38.4l0.9,0.2c0.1,0.9,0.2,1.8,0.3,2.8
			c0,11.6-0.1,23.2,0.1,34.9C20,84.4,19.4,85.5,16.5,85.4z M38.6,82.5c0.4,1-0.1,2.2-1.1,2.6c-0.2,0.1-0.5,0.2-0.8,0.2
			c-4.8,0-9.1,0-13.3-0.1c-0.6,0-1.6-1.3-1.6-1.9c0-13,0.1-26,0.2-39c0,0,0.2-0.1,0.9-0.5C28,56.5,33.2,69.1,38.6,82.5z"/>
		<path class="st2" d="M116.9,142.3v-3.1c0-0.6-0.4-1-1-1H65.5c-0.6,0-1,0.4-1,1v3.1c0,0.6-0.4,1-1,1h-7.4c-0.6,0-1,0.4-1,1v6
			c0,0.6,0.4,1,1,1h69.1c0.6,0,1-0.4,1-1v-6c0-0.6-0.4-1-1-1h-7.3C117.4,143.3,116.9,142.9,116.9,142.3
			C116.9,142.4,116.9,142.3,116.9,142.3z"/>
	</g>
</g>
</svg>
